<svg width="233" height="56" viewBox="0 0 233 56" fill="none" xmlns="http://www.w3.org/2000/svg">
<rect opacity="0.39" x="57.0624" y="21.4965" width="21.4465" height="21.4465" rx="10.7232" transform="rotate(-31.4654 57.0624 21.4965)" stroke="#1AC7D2" stroke-width="3"/>
<path opacity="0.62" d="M2 45C3.42222 41.0382 8.61333 34.5408 18 40.2458" stroke="#1AC7D2" stroke-width="3" stroke-linecap="round" stroke-linejoin="round"/>
<path opacity="0.48" d="M135.336 14.3038L156.539 14.6905L145.352 32.7066L135.336 14.3038Z" stroke="#1AC7D2" stroke-width="3"/>
<path opacity="0.54" d="M218 30.8541L219.941 36.8283L220.278 37.8647H221.368H227.649L222.567 41.557L221.686 42.1976L222.022 43.234L223.964 49.2082L218.882 45.516L218 44.8754L217.118 45.516L212.036 49.2082L213.978 43.234L214.314 42.1976L213.433 41.557L208.351 37.8647H214.632H215.722L216.059 36.8283L218 30.8541Z" stroke="#1AC7D2" stroke-width="3"/>
</svg>
